<svg xmlns="http://www.w3.org/2000/svg" width="1832.599" height="472.113" viewBox="0 0 1832.599 472.113">
  <path id="패스_44" data-name="패스 44" d="M478.055,543.181h-4.789c-27.458,92.989-89.674,140.811-164.441,143.426q-71.963,1.746-118.107-52.2-46.16-55.267-48.139-131.57a323.768,323.768,0,0,1,13.391-99.557c10.259-32.166,25.349-59.993,47.642-81.586,71.079-68.823,137.823-36.122,151.7-29.227,31.129,15.467,67.362,55.511,67.362,103.295l.085,9.032c.023,2.361,1.085,3.06,3.22,4.077.588.28,1.635-.2,1.926-.373.706-.422,4.041-4.223,6.225-7.849a12.3,12.3,0,0,0,1.752-5.959c.363-11.692,1.589-48.424,1.589-59.647,0-13.165-8.193-27.245-14.793-32.865-17.971-15.3-60.072-45.141-142.832-45.141-81.387,0-152.492,31.482-196.813,77.382q-65.525,66.673-66.022,169.3Q17.5,599.333,87.99,664.26q68.477,64.441,173.686,64.884,84.365,0,140.442-48.224,59.076-50.019,75.937-137.738M858.5,494.169q.863,94.757-36.377,160.525C798,698.537,768.272,717.544,732.2,717.812c-34.7.256-64.714-17.385-89.269-59.035q-36.862-63.794-37.694-155.323-.853-93.825,34.824-160.054,36.7-66.706,93.463-67.114,58.87-.426,91.479,59.726,32.61,59.68,33.5,158.158m120.715-.546Q976.227,391,910.228,328.715,845.2,266.441,736.038,266q-111.65-.442-183.115,68.862-70.988,68.408-70.978,167.1,0,96.066,70.468,161.4,71.468,65.8,174.193,65.792,103.235,0,177.672-68.411,74.925-68.408,74.94-167.112m393.906.546q.863,94.757-36.373,160.525c-24.133,43.843-53.85,62.851-89.929,63.118-34.7.256-64.714-17.385-89.266-59.035q-36.872-63.794-37.694-155.323-.853-93.825,34.817-160.054,36.705-66.706,93.466-67.114,58.87-.426,91.479,59.726,32.605,59.68,33.5,158.158m120.719-.546Q1490.852,391,1424.85,328.715q-65.01-62.274-174.193-62.72-111.645-.442-183.111,68.862-70.972,68.408-70.974,167.1,0,96.066,70.464,161.4,71.473,65.8,174.2,65.792,103.235,0,177.678-68.411,74.92-68.408,74.934-167.112M1849.611,326.04c0-14.816-3.665-27.726-11.073-35.922-13.554-14.992-33.209-31.874-77.392-23.377-48.025,9.235-83.342,44.117-106.442,81.684,0-31.878-4.443-71.171-13.381-81.113l-172.7,24.552v14.914q67-9.209,66.986,66.237V609.843q0,91.662-66.986,94.31v14.923H1722.7V704.154q-68.006-1.32-67.993-94.31V436.118a174.457,174.457,0,0,1,5.424-43.612c22.168-56.893,78.029-89.958,122.749-83.646,39.777,5.61,51.938,30.338,51.938,68.97v7.045l-.02.007.04,9.033c.006,2.36,1.069,3.066,3.194,4.093.588.287,1.638-.187,1.932-.364a37.791,37.791,0,0,0,6.267-7.813c1.056-1.739,3.149-4.812,3.292-8.31l.029-.017Z" transform="translate(-17.012 -257.034)"/>
</svg>
